<mxfile host="app.diagrams.net" modified="2021-12-03T00:54:54.986Z" agent="5.0 (X11; Linux x86_64) AppleWebKit/537.36 (KHTML, like Gecko) Chrome/92.0.4515.131 Safari/537.36" etag="yj6adsDPQnPiTzQZ4waU" version="15.8.6" type="github">
  <diagram name="Page-1" id="58cdce13-f638-feb5-8d6f-7d28b1aa9fa0">
    <mxGraphModel dx="1166" dy="573" grid="1" gridSize="10" guides="1" tooltips="1" connect="1" arrows="1" fold="1" page="1" pageScale="1" pageWidth="1100" pageHeight="850" background="none" math="0" shadow="0">
      <root>
        <mxCell id="0" />
        <mxCell id="1" parent="0" />
        <mxCell id="rM-iOIiQBEEEB7KfZRmV-2" style="edgeStyle=orthogonalEdgeStyle;rounded=0;orthogonalLoop=1;jettySize=auto;html=1;entryX=0;entryY=0.5;entryDx=0;entryDy=0;" parent="1" source="rM-iOIiQBEEEB7KfZRmV-1" target="rM-iOIiQBEEEB7KfZRmV-3" edge="1">
          <mxGeometry relative="1" as="geometry">
            <mxPoint x="360" y="1040" as="targetPoint" />
          </mxGeometry>
        </mxCell>
        <mxCell id="rM-iOIiQBEEEB7KfZRmV-1" value="Aluno" style="rounded=0;whiteSpace=wrap;html=1;fillColor=#000000;fontColor=#FFFFFF;" parent="1" vertex="1">
          <mxGeometry x="110" y="1110" width="120" height="60" as="geometry" />
        </mxCell>
        <mxCell id="rM-iOIiQBEEEB7KfZRmV-3" value="Ficha de empréstimo" style="rounded=1;whiteSpace=wrap;html=1;" parent="1" vertex="1">
          <mxGeometry x="470" y="1072.5" width="120" height="135" as="geometry" />
        </mxCell>
        <mxCell id="rM-iOIiQBEEEB7KfZRmV-5" value="Efetuar ficha" style="text;html=1;strokeColor=none;fillColor=none;align=center;verticalAlign=middle;whiteSpace=wrap;rounded=0;" parent="1" vertex="1">
          <mxGeometry x="260" y="1120" width="140" height="20" as="geometry" />
        </mxCell>
        <mxCell id="rM-iOIiQBEEEB7KfZRmV-15" style="edgeStyle=orthogonalEdgeStyle;rounded=0;orthogonalLoop=1;jettySize=auto;html=1;exitX=0;exitY=0.5;exitDx=0;exitDy=0;fontColor=#000000;" parent="1" source="rM-iOIiQBEEEB7KfZRmV-7" edge="1">
          <mxGeometry relative="1" as="geometry">
            <mxPoint x="150" y="1100" as="targetPoint" />
          </mxGeometry>
        </mxCell>
        <mxCell id="rM-iOIiQBEEEB7KfZRmV-20" style="edgeStyle=orthogonalEdgeStyle;rounded=0;orthogonalLoop=1;jettySize=auto;html=1;exitX=0.25;exitY=1;exitDx=0;exitDy=0;fontColor=#000000;" parent="1" source="rM-iOIiQBEEEB7KfZRmV-7" edge="1">
          <mxGeometry relative="1" as="geometry">
            <mxPoint x="180" y="1100" as="targetPoint" />
            <Array as="points">
              <mxPoint x="320" y="940" />
              <mxPoint x="180" y="940" />
            </Array>
          </mxGeometry>
        </mxCell>
        <mxCell id="rM-iOIiQBEEEB7KfZRmV-7" value="Publicações disponíveis" style="rounded=0;whiteSpace=wrap;html=1;fontColor=#000000;fillColor=#FFFFFF;" parent="1" vertex="1">
          <mxGeometry x="290" y="830" width="120" height="60" as="geometry" />
        </mxCell>
        <mxCell id="RJDZCqAeNgO9E9qy_P9N-1" style="edgeStyle=orthogonalEdgeStyle;rounded=0;orthogonalLoop=1;jettySize=auto;html=1;" edge="1" parent="1" source="rM-iOIiQBEEEB7KfZRmV-8">
          <mxGeometry relative="1" as="geometry">
            <mxPoint x="690" y="900" as="targetPoint" />
          </mxGeometry>
        </mxCell>
        <mxCell id="RJDZCqAeNgO9E9qy_P9N-6" style="edgeStyle=orthogonalEdgeStyle;rounded=0;orthogonalLoop=1;jettySize=auto;html=1;" edge="1" parent="1" source="rM-iOIiQBEEEB7KfZRmV-8">
          <mxGeometry relative="1" as="geometry">
            <mxPoint x="210" y="1100" as="targetPoint" />
          </mxGeometry>
        </mxCell>
        <mxCell id="rM-iOIiQBEEEB7KfZRmV-8" value="Funcionário" style="rounded=0;whiteSpace=wrap;html=1;fillColor=#000000;fontColor=#FFFFFF;" parent="1" vertex="1">
          <mxGeometry x="470" y="980" width="120" height="60" as="geometry" />
        </mxCell>
        <mxCell id="rM-iOIiQBEEEB7KfZRmV-11" value="Ałetar - Limite máximo 3 publicações" style="text;html=1;strokeColor=none;fillColor=none;align=center;verticalAlign=middle;whiteSpace=wrap;rounded=0;" parent="1" vertex="1">
          <mxGeometry x="170" y="910" width="140" height="30" as="geometry" />
        </mxCell>
        <mxCell id="rM-iOIiQBEEEB7KfZRmV-16" value="Alerta - Precisa dos Escritores em Livros" style="text;html=1;strokeColor=none;fillColor=none;align=center;verticalAlign=middle;whiteSpace=wrap;rounded=0;" parent="1" vertex="1">
          <mxGeometry x="140" y="830" width="140" height="20" as="geometry" />
        </mxCell>
        <mxCell id="rM-iOIiQBEEEB7KfZRmV-18" value="" style="curved=1;endArrow=classic;html=1;rounded=0;fontColor=#000000;exitX=0;exitY=0.25;exitDx=0;exitDy=0;" parent="1" source="rM-iOIiQBEEEB7KfZRmV-3" edge="1">
          <mxGeometry width="50" height="50" relative="1" as="geometry">
            <mxPoint x="370" y="970" as="sourcePoint" />
            <mxPoint x="340" y="900" as="targetPoint" />
            <Array as="points">
              <mxPoint x="310" y="940" />
            </Array>
          </mxGeometry>
        </mxCell>
        <mxCell id="rM-iOIiQBEEEB7KfZRmV-19" value="Verificar" style="text;html=1;strokeColor=none;fillColor=none;align=center;verticalAlign=middle;whiteSpace=wrap;rounded=0;fontColor=#000000;" parent="1" vertex="1">
          <mxGeometry x="330" y="920" width="60" height="30" as="geometry" />
        </mxCell>
        <mxCell id="rM-iOIiQBEEEB7KfZRmV-22" value="" style="curved=1;endArrow=classic;html=1;rounded=0;fontColor=#000000;exitX=0.75;exitY=1;exitDx=0;exitDy=0;" parent="1" source="rM-iOIiQBEEEB7KfZRmV-7" edge="1">
          <mxGeometry width="50" height="50" relative="1" as="geometry">
            <mxPoint x="380" y="905" as="sourcePoint" />
            <mxPoint x="500" y="970" as="targetPoint" />
            <Array as="points">
              <mxPoint x="430" y="905" />
            </Array>
          </mxGeometry>
        </mxCell>
        <mxCell id="rM-iOIiQBEEEB7KfZRmV-26" value="Confirma" style="text;html=1;strokeColor=none;fillColor=none;align=center;verticalAlign=middle;whiteSpace=wrap;rounded=0;fontColor=#000000;" parent="1" vertex="1">
          <mxGeometry x="460" y="910" width="60" height="30" as="geometry" />
        </mxCell>
        <mxCell id="rM-iOIiQBEEEB7KfZRmV-27" value="Retorna a Publicação" style="text;html=1;strokeColor=none;fillColor=none;align=center;verticalAlign=middle;whiteSpace=wrap;rounded=0;fontColor=#000000;" parent="1" vertex="1">
          <mxGeometry x="220" y="980" width="140" height="30" as="geometry" />
        </mxCell>
        <mxCell id="RJDZCqAeNgO9E9qy_P9N-8" style="edgeStyle=orthogonalEdgeStyle;rounded=0;orthogonalLoop=1;jettySize=auto;html=1;exitX=0.25;exitY=0;exitDx=0;exitDy=0;" edge="1" parent="1" source="RJDZCqAeNgO9E9qy_P9N-2">
          <mxGeometry relative="1" as="geometry">
            <mxPoint x="540" y="690" as="targetPoint" />
          </mxGeometry>
        </mxCell>
        <mxCell id="RJDZCqAeNgO9E9qy_P9N-10" style="edgeStyle=orthogonalEdgeStyle;rounded=0;orthogonalLoop=1;jettySize=auto;html=1;exitX=0.5;exitY=0;exitDx=0;exitDy=0;" edge="1" parent="1" source="RJDZCqAeNgO9E9qy_P9N-2">
          <mxGeometry relative="1" as="geometry">
            <mxPoint x="690" y="690" as="targetPoint" />
          </mxGeometry>
        </mxCell>
        <mxCell id="RJDZCqAeNgO9E9qy_P9N-12" style="edgeStyle=orthogonalEdgeStyle;rounded=0;orthogonalLoop=1;jettySize=auto;html=1;exitX=0.75;exitY=0;exitDx=0;exitDy=0;" edge="1" parent="1" source="RJDZCqAeNgO9E9qy_P9N-2">
          <mxGeometry relative="1" as="geometry">
            <mxPoint x="870" y="700" as="targetPoint" />
          </mxGeometry>
        </mxCell>
        <mxCell id="RJDZCqAeNgO9E9qy_P9N-2" value="Verifica informações sobre as publicações" style="rounded=0;whiteSpace=wrap;html=1;fontColor=#000000;fillColor=#FFFFFF;" vertex="1" parent="1">
          <mxGeometry x="630" y="830" width="120" height="60" as="geometry" />
        </mxCell>
        <mxCell id="RJDZCqAeNgO9E9qy_P9N-5" value="adiciona" style="text;html=1;strokeColor=none;fillColor=none;align=center;verticalAlign=middle;whiteSpace=wrap;rounded=0;" vertex="1" parent="1">
          <mxGeometry x="610" y="980" width="60" height="30" as="geometry" />
        </mxCell>
        <mxCell id="RJDZCqAeNgO9E9qy_P9N-19" style="edgeStyle=orthogonalEdgeStyle;rounded=0;orthogonalLoop=1;jettySize=auto;html=1;exitX=0.5;exitY=0;exitDx=0;exitDy=0;entryX=0.5;entryY=0;entryDx=0;entryDy=0;" edge="1" parent="1" source="RJDZCqAeNgO9E9qy_P9N-7" target="rM-iOIiQBEEEB7KfZRmV-7">
          <mxGeometry relative="1" as="geometry">
            <mxPoint x="350" y="590" as="targetPoint" />
          </mxGeometry>
        </mxCell>
        <mxCell id="RJDZCqAeNgO9E9qy_P9N-7" value="Cadastrar/definir nova área" style="rounded=0;whiteSpace=wrap;html=1;fontColor=#000000;fillColor=#FFFFFF;" vertex="1" parent="1">
          <mxGeometry x="480" y="630" width="120" height="60" as="geometry" />
        </mxCell>
        <mxCell id="RJDZCqAeNgO9E9qy_P9N-9" value="Nova publicação" style="text;html=1;strokeColor=none;fillColor=none;align=center;verticalAlign=middle;whiteSpace=wrap;rounded=0;" vertex="1" parent="1">
          <mxGeometry x="540" y="730" width="120" height="30" as="geometry" />
        </mxCell>
        <mxCell id="RJDZCqAeNgO9E9qy_P9N-11" value="Novo livro" style="text;html=1;strokeColor=none;fillColor=none;align=center;verticalAlign=middle;whiteSpace=wrap;rounded=0;" vertex="1" parent="1">
          <mxGeometry x="660" y="700" width="120" height="30" as="geometry" />
        </mxCell>
        <mxCell id="RJDZCqAeNgO9E9qy_P9N-13" value="Nova Revista" style="text;html=1;strokeColor=none;fillColor=none;align=center;verticalAlign=middle;whiteSpace=wrap;rounded=0;" vertex="1" parent="1">
          <mxGeometry x="780" y="730" width="100" height="30" as="geometry" />
        </mxCell>
        <mxCell id="RJDZCqAeNgO9E9qy_P9N-17" style="edgeStyle=orthogonalEdgeStyle;rounded=0;orthogonalLoop=1;jettySize=auto;html=1;exitX=0.5;exitY=0;exitDx=0;exitDy=0;" edge="1" parent="1" source="RJDZCqAeNgO9E9qy_P9N-14">
          <mxGeometry relative="1" as="geometry">
            <mxPoint x="350" y="810" as="targetPoint" />
          </mxGeometry>
        </mxCell>
        <mxCell id="RJDZCqAeNgO9E9qy_P9N-14" value="Cadastrar ISBN" style="rounded=0;whiteSpace=wrap;html=1;fontColor=#000000;fillColor=#FFFFFF;" vertex="1" parent="1">
          <mxGeometry x="630" y="630" width="120" height="60" as="geometry" />
        </mxCell>
        <mxCell id="RJDZCqAeNgO9E9qy_P9N-18" style="edgeStyle=orthogonalEdgeStyle;rounded=0;orthogonalLoop=1;jettySize=auto;html=1;exitX=0.5;exitY=0;exitDx=0;exitDy=0;" edge="1" parent="1" source="RJDZCqAeNgO9E9qy_P9N-15">
          <mxGeometry relative="1" as="geometry">
            <mxPoint x="350" y="790" as="targetPoint" />
          </mxGeometry>
        </mxCell>
        <mxCell id="RJDZCqAeNgO9E9qy_P9N-15" value="Registro de Periocidade" style="rounded=0;whiteSpace=wrap;html=1;fontColor=#000000;fillColor=#FFFFFF;" vertex="1" parent="1">
          <mxGeometry x="800" y="630" width="120" height="60" as="geometry" />
        </mxCell>
        <mxCell id="RJDZCqAeNgO9E9qy_P9N-20" value="Adiciona ao acervo" style="text;html=1;strokeColor=none;fillColor=none;align=center;verticalAlign=middle;whiteSpace=wrap;rounded=0;" vertex="1" parent="1">
          <mxGeometry x="530" y="580" width="170" height="30" as="geometry" />
        </mxCell>
      </root>
    </mxGraphModel>
  </diagram>
</mxfile>
